<svg xmlns="http://www.w3.org/2000/svg" xmlns:xlink="http://www.w3.org/1999/xlink" zoomAndPan="magnify" viewBox="0 0 57.75 57.749997" preserveAspectRatio="xMidYMid meet" version="1.0"><path fill="#6b3f6e" d="M 35.570312 50.152344 L 23.5 50.152344 C 23.222656 50.152344 22.949219 50.074219 22.703125 49.929688 L 16.050781 45.917969 C 15.320312 45.480469 15.085938 44.535156 15.527344 43.808594 C 15.96875 43.078125 16.917969 42.847656 17.640625 43.28125 L 23.925781 47.066406 L 35.203125 47.066406 L 47.105469 41.058594 L 29.773438 41.058594 C 28.960938 41.058594 28.285156 40.421875 28.234375 39.613281 C 28.183594 38.804688 28.773438 38.089844 29.582031 37.992188 C 31.46875 37.757812 32.679688 37.042969 32.667969 36.167969 C 32.65625 35.617188 32.183594 34.984375 31.484375 34.917969 C 30.683594 34.847656 29.855469 34.71875 29.058594 34.589844 C 27.011719 34.265625 24.894531 33.933594 23.730469 34.679688 C 21.644531 36.019531 18.605469 38.6875 18.578125 38.714844 C 17.941406 39.28125 16.964844 39.21875 16.402344 38.582031 C 15.839844 37.945312 15.902344 36.972656 16.535156 36.40625 C 16.671875 36.289062 19.777344 33.554688 22.0625 32.085938 C 24.207031 30.710938 26.914062 31.132812 29.535156 31.546875 C 30.320312 31.667969 31.0625 31.785156 31.761719 31.851562 C 33.960938 32.054688 35.707031 33.925781 35.746094 36.117188 C 35.753906 36.726562 35.628906 37.367188 35.328125 37.980469 L 47.457031 37.980469 C 48.875 37.980469 50.046875 38.90625 50.375 40.28125 C 50.703125 41.660156 50.074219 43.015625 48.808594 43.652344 L 36.261719 49.984375 C 36.046875 50.089844 35.8125 50.152344 35.570312 50.152344 Z M 35.570312 50.152344 " fill-opacity="1" fill-rule="nonzero"/><path fill="#31a946" d="M 46.996094 36.246094 C 46.316406 36.246094 45.691406 35.792969 45.507812 35.101562 C 45.441406 34.851562 43.695312 28.804688 37.304688 28.042969 C 30.675781 27.257812 27.617188 30.085938 27.488281 30.207031 C 26.875 30.789062 25.902344 30.777344 25.316406 30.167969 C 24.726562 29.5625 24.734375 28.601562 25.335938 28.003906 C 25.503906 27.84375 29.476562 24.007812 37.667969 24.984375 C 46.160156 25.988281 48.390625 33.964844 48.480469 34.300781 C 48.695312 35.121094 48.210938 35.96875 47.390625 36.183594 C 47.257812 36.21875 47.125 36.234375 46.996094 36.234375 Z M 46.996094 36.246094 " fill-opacity="1" fill-rule="nonzero"/><path fill="#31a946" d="M 37.488281 28.054688 C 36.640625 28.054688 35.949219 27.363281 35.949219 26.515625 L 35.949219 15.953125 C 35.949219 15.097656 36.640625 14.414062 37.488281 14.414062 C 38.335938 14.414062 39.027344 15.105469 39.027344 15.953125 L 39.027344 26.515625 C 39.027344 27.371094 38.335938 28.054688 37.488281 28.054688 Z M 37.488281 28.054688 " fill-opacity="1" fill-rule="nonzero"/><path fill="#138037" d="M 41.292969 19.6875 C 39.503906 19.6875 38.207031 19.085938 38.109375 19.035156 C 37.800781 18.882812 37.550781 18.640625 37.402344 18.335938 C 37.304688 18.144531 35.082031 13.554688 39.234375 9.398438 C 42.082031 6.550781 47.527344 6.808594 48.140625 6.847656 C 48.941406 6.898438 49.566406 7.554688 49.582031 8.359375 C 49.59375 8.988281 49.609375 14.609375 47.03125 17.195312 C 45.054688 19.167969 42.960938 19.6875 41.296875 19.6875 Z M 39.972656 16.4375 C 40.90625 16.6875 42.953125 16.917969 44.855469 15.015625 C 45.820312 14.050781 46.292969 11.785156 46.449219 9.929688 C 44.816406 10.03125 42.570312 10.425781 41.414062 11.574219 C 39.480469 13.507812 39.703125 15.496094 39.972656 16.4375 Z M 39.972656 16.4375 " fill-opacity="1" fill-rule="nonzero"/><path fill="#138037" d="M 32.765625 21.832031 C 31.109375 21.832031 29.027344 21.304688 27.042969 19.320312 C 24.191406 16.46875 24.449219 11.023438 24.488281 10.414062 C 24.539062 9.613281 25.195312 8.988281 26 8.972656 C 26.632812 8.960938 32.25 8.941406 34.835938 11.53125 C 38.929688 15.621094 36.769531 20.25 36.675781 20.445312 C 36.523438 20.753906 36.28125 21.003906 35.980469 21.152344 C 35.878906 21.203125 34.578125 21.832031 32.765625 21.832031 Z M 27.570312 12.109375 C 27.671875 13.742188 28.066406 15.996094 29.214844 17.144531 C 31.148438 19.078125 33.136719 18.855469 34.078125 18.589844 C 34.328125 17.652344 34.550781 15.605469 32.65625 13.703125 C 31.691406 12.738281 29.425781 12.265625 27.570312 12.109375 Z M 27.570312 12.109375 " fill-opacity="1" fill-rule="nonzero"/><path fill="#906693" d="M 16.847656 50.152344 L 8.054688 50.152344 C 7.210938 50.152344 6.519531 49.460938 6.519531 48.613281 L 6.519531 33.390625 C 6.519531 32.539062 7.210938 31.851562 8.054688 31.851562 L 16.847656 31.851562 C 17.695312 31.851562 18.386719 32.542969 18.386719 33.390625 L 18.386719 48.613281 C 18.386719 49.464844 17.695312 50.152344 16.847656 50.152344 Z M 9.59375 47.074219 L 15.308594 47.074219 L 15.308594 34.929688 L 9.59375 34.929688 Z M 9.59375 47.074219 " fill-opacity="1" fill-rule="nonzero"/></svg>