<?xml version="1.0" encoding="UTF-8"?>
<svg id="uuid-334ea601-f0a9-4f90-a244-4d64d4c597a4" xmlns="http://www.w3.org/2000/svg" xmlns:xlink="http://www.w3.org/1999/xlink" version="1.1" viewBox="0 0 103.5 102.2">
  <!-- Generator: Adobe Illustrator 29.4.0, SVG Export Plug-In . SVG Version: 2.1.0 Build 152)  -->
  <defs>
    <style>
      .st0 {
        fill: none;
      }

      .st1 {
        fill: #6b406e;
      }

      .st2 {
        fill: #1d1d1b;
        opacity: 0;
      }

      .st2, .st3 {
        isolation: isolate;
      }

      .st4 {
        clip-path: url(#clippath-1);
      }

      .st5 {
        clip-path: url(#clippath-3);
      }

      .st6 {
        clip-path: url(#clippath-2);
      }

      .st7 {
        fill: #f9f9f9;
      }

      .st8 {
        fill: url(#Degradado_sin_nombre_3);
      }

      .st9 {
        fill: url(#Degradado_sin_nombre_2);
      }

      .st10 {
        fill: url(#Degradado_sin_nombre_31);
      }

      .st11 {
        clip-path: url(#clippath);
      }

      .st3 {
        fill: #282828;
        opacity: .2;
      }
    </style>
    <clipPath id="clippath">
      <rect class="st0" x="0" y="0" width="102.2" height="102.2" rx="6.2" ry="6.2"/>
    </clipPath>
    <clipPath id="clippath-1">
      <path class="st0" d="M25.3,64.6c-1.6,0-2.8-1.2-2.8-2.8v-5.3c0-4.9,4.1-9.1,9-9.1h39.1c1.9,0,3.5-1.6,3.5-3.5v-6.8c0-1.6,1.2-2.8,2.8-2.8s2.8,1.2,2.8,2.8v6.8c0,4.9-4.1,9.1-9,9.1H31.5c-1.9,0-3.5,1.6-3.5,3.5v5.3c0,1.6-1.2,2.8-2.8,2.8Z"/>
    </clipPath>
    <linearGradient id="Degradado_sin_nombre_2" data-name="Degradado sin nombre 2" x1="229.8" y1="-206" x2="304.5" y2="-206" gradientTransform="translate(-153.6 -108.3) scale(.8 -.8)" gradientUnits="userSpaceOnUse">
      <stop offset="0" stop-color="#118137"/>
      <stop offset="0" stop-color="#118137"/>
      <stop offset="0" stop-color="#128238"/>
      <stop offset="0" stop-color="#138339"/>
      <stop offset="0" stop-color="#14843a"/>
      <stop offset="0" stop-color="#15843b"/>
      <stop offset="0" stop-color="#16853c"/>
      <stop offset=".1" stop-color="#17863d"/>
      <stop offset=".1" stop-color="#17873e"/>
      <stop offset=".1" stop-color="#18873f"/>
      <stop offset=".2" stop-color="#198840"/>
      <stop offset=".2" stop-color="#1a8941"/>
      <stop offset=".2" stop-color="#1b8941"/>
      <stop offset=".2" stop-color="#1c8a42"/>
      <stop offset=".2" stop-color="#1d8b43"/>
      <stop offset=".2" stop-color="#1d8c44"/>
      <stop offset=".2" stop-color="#1e8c45"/>
      <stop offset=".3" stop-color="#1f8d46"/>
      <stop offset=".3" stop-color="#208e47"/>
      <stop offset=".3" stop-color="#218f48"/>
      <stop offset=".3" stop-color="#228f49"/>
      <stop offset=".3" stop-color="#23904a"/>
      <stop offset=".3" stop-color="#23914a"/>
      <stop offset=".4" stop-color="#24924b"/>
      <stop offset=".4" stop-color="#25924c"/>
      <stop offset=".4" stop-color="#26934d"/>
      <stop offset=".4" stop-color="#27944e"/>
      <stop offset=".4" stop-color="#28944f"/>
      <stop offset=".4" stop-color="#299550"/>
      <stop offset=".5" stop-color="#299651"/>
      <stop offset=".5" stop-color="#2a9752"/>
      <stop offset=".5" stop-color="#2b9753"/>
      <stop offset=".5" stop-color="#2c9854"/>
      <stop offset=".5" stop-color="#2d9954"/>
      <stop offset=".5" stop-color="#2e9a55"/>
      <stop offset=".5" stop-color="#2f9a56"/>
      <stop offset=".6" stop-color="#309b57"/>
      <stop offset=".6" stop-color="#309c58"/>
      <stop offset=".6" stop-color="#319d59"/>
      <stop offset=".6" stop-color="#329d5a"/>
      <stop offset=".6" stop-color="#339e5b"/>
      <stop offset=".6" stop-color="#349f5c"/>
      <stop offset=".7" stop-color="#359f5d"/>
      <stop offset=".7" stop-color="#36a05e"/>
      <stop offset=".7" stop-color="#36a15e"/>
      <stop offset=".7" stop-color="#37a25f"/>
      <stop offset=".7" stop-color="#38a260"/>
      <stop offset=".7" stop-color="#39a361"/>
      <stop offset=".8" stop-color="#3aa462"/>
      <stop offset=".8" stop-color="#3ba563"/>
      <stop offset=".8" stop-color="#3ca564"/>
      <stop offset=".8" stop-color="#3ca665"/>
      <stop offset=".8" stop-color="#3da766"/>
      <stop offset=".8" stop-color="#3ea867"/>
      <stop offset=".8" stop-color="#3fa867"/>
      <stop offset=".9" stop-color="#40a968"/>
      <stop offset=".9" stop-color="#41aa69"/>
      <stop offset=".9" stop-color="#42aa6a"/>
      <stop offset=".9" stop-color="#42ab6b"/>
      <stop offset=".9" stop-color="#43ac6c"/>
      <stop offset=".9" stop-color="#44ad6d"/>
      <stop offset="1" stop-color="#45ad6e"/>
      <stop offset="1" stop-color="#46ae6f"/>
      <stop offset="1" stop-color="#47af70"/>
      <stop offset="1" stop-color="#48b071"/>
    </linearGradient>
    <clipPath id="clippath-2">
      <path class="st0" d="M82.8,41.4c-.6,0-1.4-.3-1.9-.7l-4-3.6-3.9,3.6c-1.1,1-2.9,1-3.9,0-1-1.1-1-2.9,0-3.9l5.8-5.4c1-1,2.7-1,3.8,0l5.9,5.4c1.1,1,1.2,2.8.2,3.9-.6.6-1.3.9-2.1.9h0Z"/>
    </clipPath>
    <linearGradient id="Degradado_sin_nombre_3" data-name="Degradado sin nombre 3" x1="289.4" y1="-188.4" x2="312.6" y2="-188.4" gradientTransform="translate(-153.6 -108.3) scale(.8 -.8)" gradientUnits="userSpaceOnUse">
      <stop offset="0" stop-color="#118137"/>
      <stop offset="0" stop-color="#118137"/>
      <stop offset="0" stop-color="#128238"/>
      <stop offset="0" stop-color="#138339"/>
      <stop offset="0" stop-color="#14843a"/>
      <stop offset="0" stop-color="#15843b"/>
      <stop offset=".1" stop-color="#16853c"/>
      <stop offset=".1" stop-color="#17863d"/>
      <stop offset=".1" stop-color="#18873e"/>
      <stop offset=".2" stop-color="#19873f"/>
      <stop offset=".2" stop-color="#198840"/>
      <stop offset=".2" stop-color="#1a8941"/>
      <stop offset=".2" stop-color="#1b8a42"/>
      <stop offset=".2" stop-color="#1c8a43"/>
      <stop offset=".2" stop-color="#1d8b44"/>
      <stop offset=".2" stop-color="#1e8c45"/>
      <stop offset=".3" stop-color="#1f8d45"/>
      <stop offset=".3" stop-color="#208e46"/>
      <stop offset=".3" stop-color="#218e47"/>
      <stop offset=".3" stop-color="#218f48"/>
      <stop offset=".3" stop-color="#229049"/>
      <stop offset=".3" stop-color="#23914a"/>
      <stop offset=".4" stop-color="#24914b"/>
      <stop offset=".4" stop-color="#25924c"/>
      <stop offset=".4" stop-color="#26934d"/>
      <stop offset=".4" stop-color="#27944e"/>
      <stop offset=".4" stop-color="#28944f"/>
      <stop offset=".4" stop-color="#299550"/>
      <stop offset=".5" stop-color="#299651"/>
      <stop offset=".5" stop-color="#2a9752"/>
      <stop offset=".5" stop-color="#2b9753"/>
      <stop offset=".5" stop-color="#2c9854"/>
      <stop offset=".5" stop-color="#2d9954"/>
      <stop offset=".5" stop-color="#2e9a55"/>
      <stop offset=".5" stop-color="#2f9a56"/>
      <stop offset=".6" stop-color="#309b57"/>
      <stop offset=".6" stop-color="#319c58"/>
      <stop offset=".6" stop-color="#319d59"/>
      <stop offset=".6" stop-color="#329d5a"/>
      <stop offset=".6" stop-color="#339e5b"/>
      <stop offset=".6" stop-color="#349f5c"/>
      <stop offset=".7" stop-color="#35a05d"/>
      <stop offset=".7" stop-color="#36a05e"/>
      <stop offset=".7" stop-color="#37a15f"/>
      <stop offset=".7" stop-color="#38a260"/>
      <stop offset=".7" stop-color="#38a361"/>
      <stop offset=".7" stop-color="#39a362"/>
      <stop offset=".8" stop-color="#3aa462"/>
      <stop offset=".8" stop-color="#3ba563"/>
      <stop offset=".8" stop-color="#3ca664"/>
      <stop offset=".8" stop-color="#3da765"/>
      <stop offset=".8" stop-color="#3ea766"/>
      <stop offset=".8" stop-color="#3fa867"/>
      <stop offset=".8" stop-color="#40a968"/>
      <stop offset=".9" stop-color="#40aa69"/>
      <stop offset=".9" stop-color="#41aa6a"/>
      <stop offset=".9" stop-color="#42ab6b"/>
      <stop offset=".9" stop-color="#43ac6c"/>
      <stop offset=".9" stop-color="#44ad6d"/>
      <stop offset=".9" stop-color="#45ad6e"/>
      <stop offset="1" stop-color="#46ae6f"/>
      <stop offset="1" stop-color="#47af70"/>
      <stop offset="1" stop-color="#48b071"/>
    </linearGradient>
    <clipPath id="clippath-3">
      <path class="st0" d="M25.3,67.3c-.7,0-1.4-.3-1.9-.7l-5.9-5.4c-1.1-1-1.2-2.8-.2-3.9,1-1.1,2.8-1.2,3.9-.2l4,3.6,3.9-3.6c1.1-1,2.9-1,3.9,0,1,1.1,1,2.9,0,3.9l-5.8,5.4c-.6.5-1.2.7-1.9.7h0Z"/>
    </clipPath>
    <linearGradient id="Degradado_sin_nombre_31" data-name="Degradado sin nombre 3" x1="221.9" y1="-221.9" x2="245.2" y2="-221.9" xlink:href="#Degradado_sin_nombre_3"/>
  </defs>
  <rect class="st7" x="1.3" y="0" width="102.2" height="102.2" rx="6.2" ry="6.2"/>
  <path class="st3" d="M97.3,97.7H7.5c-3.4,0-6.2-2.8-6.2-6.2v4.5c0,3.4,2.8,6.2,6.2,6.2h89.8c3.4,0,6.2-2.8,6.2-6.2v-4.5c0,3.4-2.8,6.2-6.2,6.2Z"/>
  <g class="st11">
    <path class="st2" d="M72.7,68.2l6.5-21.4-2.2-15.8,7.5-6.3-2.1-11.7-10.7-1.9-34.3,19-7.8-5.5L1.3,39.1v56.9c0,3.4,2.8,6.2,6.2,6.2l67.9.9,9-22.6-5.7-5.9,4.9-5.6-6.7,4.3-4.3-5Z"/>
  </g>
  <g>
    <path class="st1" d="M25.3,88.7c-5.4,0-9.9-4.5-9.9-9.9s4.5-9.9,9.9-9.9,9.9,4.5,9.9,9.9-4.5,9.9-9.9,9.9ZM25.3,74.6c-2.3,0-4.3,2-4.3,4.3s2,4.3,4.3,4.3,4.3-2,4.3-4.3-2-4.3-4.3-4.3Z"/>
    <path class="st1" d="M76.9,28.3c-5.4,0-9.9-4.5-9.9-9.9s4.5-9.9,9.9-9.9,9.9,4.5,9.9,9.9-4.5,9.9-9.9,9.9ZM76.9,14.1c-2.3,0-4.3,2-4.3,4.3s2,4.3,4.3,4.3,4.3-2,4.3-4.3-2-4.3-4.3-4.3Z"/>
    <g class="st4">
      <path class="st9" d="M22.5,34.4v30.2h57.2v-30.2H22.5Z"/>
    </g>
    <g class="st6">
      <path class="st8" d="M68.1,30.3v11.5h17.8v-11.5h-17.8Z"/>
    </g>
    <g class="st5">
      <path class="st10" d="M16.4,56v11.3h17.8v-11.3h-17.8Z"/>
    </g>
    <path class="st1" d="M40.6,38.6c-.7,0-1.4-.3-2-.8l-9.5-9.4c-1.1-1.1-1.1-2.9,0-3.9,1.1-1.1,2.9-1.1,3.9,0l9.5,9.4c1.1,1.1,1.1,2.9,0,3.9-.6.6-1.3.8-2,.8Z"/>
    <path class="st1" d="M31.1,38.6c-.7,0-1.4-.3-2-.8-1.1-1.1-1.1-2.9,0-3.9l9.5-9.4c1.1-1.1,2.9-1.1,3.9,0,1.1,1.1,1.1,2.9,0,3.9l-9.5,9.4c-.6.6-1.2.8-2,.8Z"/>
    <path class="st1" d="M54.3,74.1c-.7,0-1.4-.3-2-.8l-9.4-9.4c-1.1-1.1-1.1-2.9,0-3.9,1.1-1.1,2.9-1.1,3.9,0l9.4,9.4c1.1,1.1,1.1,2.9,0,3.9-.6.6-1.3.8-2,.8Z"/>
    <path class="st1" d="M44.8,74.1c-.7,0-1.4-.3-2-.8-1.1-1.1-1.1-2.9,0-3.9l9.4-9.4c1.1-1.1,2.9-1.1,3.9,0,1.1,1.1,1.1,2.9,0,3.9l-9.4,9.4c-.6.6-1.3.8-2,.8Z"/>
    <path class="st1" d="M81.7,83.2c-.7,0-1.4-.3-2-.8l-9.4-9.5c-1.1-1.1-1.1-2.9,0-3.9,1.1-1,2.9-1.1,3.9,0l9.4,9.5c1.1,1.1,1.1,2.9,0,3.9-.6.6-1.2.8-2,.8Z"/>
    <path class="st1" d="M72.3,83.2c-.7,0-1.4-.3-2-.8-1.1-1.1-1.1-2.9,0-3.9l9.4-9.5c1.1-1.1,2.9-1.1,3.9,0,1.1,1.1,1.1,2.9,0,3.9l-9.4,9.5c-.6.6-1.3.8-2,.8Z"/>
  </g>
</svg>