<svg aria-hidden="true" focusable="false" viewBox="0 0 25.9 28" xmlns="http://www.w3.org/2000/svg"><g> <path d="M21.2,2.7h-6.5V2c0-1.1-0.9-2-2-2s-2,0.9-2,2v0.6h-6C2.1,2.7,0,4.8,0,7.4v8c0,2.6,2.1,4.7,4.7,4.7h1.8l-2.9,4.2  c-0.4,0.5-0.5,1.1-0.4,1.7s0.4,1.1,0.9,1.5S5,28,5.5,28c0.1,0,0.2,0,0.4,0c0.6-0.1,1.1-0.4,1.5-1l4.7-6.9h1.6l4.8,6.9  c0.4,0.5,0.9,0.8,1.5,0.9c0.1,0,0.2,0,0.3,0c0.5,0,1-0.2,1.4-0.5c0.5-0.4,0.8-0.9,0.9-1.5s-0.1-1.2-0.4-1.7L19.3,20h1.8  c2.6,0,4.7-2.1,4.7-4.7v-8C25.9,4.8,23.8,2.7,21.2,2.7z M23.4,15.4c0,1.2-1,2.3-2.3,2.3H17h-2.5h-3.1H8.9H4.7c-1.2,0-2.3-1-2.3-2.3  v-8c0-1.2,1-2.3,2.3-2.3h7.5c0.1,0,0.3,0.1,0.4,0.1s0.3,0,0.4-0.1h8.1c1.2,0,2.3,1,2.3,2.3C23.4,7.4,23.4,15.4,23.4,15.4z"/> <path d="M18.9,6.7c-0.4-0.5-1.2-0.6-1.7-0.1c-0.5,0.4-0.6,1.2-0.1,1.7l0.4,0.4h-2.1c-0.3,0-0.6,0.1-0.8,0.3l-5.7,4.6H5.7  c-0.7,0-1.2,0.6-1.2,1.2S5,16,5.7,16h3.6c0.3,0,0.6-0.1,0.8-0.3l5.7-4.6h1.5l-0.1,0.2c-0.4,0.5-0.4,1.3,0.1,1.7  c0.2,0.2,0.5,0.3,0.8,0.3s0.7-0.1,0.9-0.4l2-2.3c0.4-0.5,0.4-1.2,0-1.6L18.9,6.7z"/></g></svg>