<svg aria-hidden="true" focusable="false" viewBox="0 0 800 800" xmlns="http://www.w3.org/2000/svg"><g><g><path d="M488.13,229.5c35.77,0,71.53-.03,107.3.01,10.77.01,16.42,4.14,16.68,11.91.28,8.17-5.65,12.73-16.96,12.73-71.2.04-142.39.04-213.59,0-10.97,0-16.24-3.96-16.43-12.01-.2-8.51,5.15-12.63,16.7-12.64,35.43-.03,70.86-.01,106.29-.01Z" style="stroke-width: 0px;"/><path d="M270.79,254.2c-7.48-.51-12.14-4.06-12.78-11.67-.62-7.31,4.83-13.05,12.17-12.91,7.69.15,11.96,4.52,12.16,11.92.21,7.5-4.29,11.58-11.55,12.65Z" style="stroke-width: 0px;"/><path d="M229.4,254.17c-7.44-.41-12.16-4.26-12.5-11.72-.33-7.32,3.51-12.14,11.21-12.81,7.12-.62,13.65,5.05,13.3,11.98-.37,7.27-4.48,11.65-12.01,12.55Z" style="stroke-width: 0px;"/><path d="M323.53,241.91c-.65,7.35-4.42,11.98-12.03,12.09-7.56.11-11.83-4.41-12.53-11.73-.67-7.04,5.37-12.94,12.59-12.66,7.7.3,11.37,4.78,11.97,12.3Z" style="stroke-width: 0px;"/></g></g><path d="M677.91,227.15c-.01-30.6-18.45-49.28-49.17-49.3-142.88-.1-285.76-.09-428.64.02-31.29.02-49.43,18.63-49.44,50.06-.02,100.32.67,200.65-.43,300.95-.33,30.19,18.7,53.69,53.18,53.22,69.91-.95,139.84-.28,209.76-.28,71.61,0,143.22.07,214.83-.03,31.4-.04,49.9-18.52,49.91-49.63.03-101.67.03-203.34,0-305.01ZM352.1,484.78c-4.26,7.37-11.39,7.93-21.89,1.57-24.2-14.65-48.39-29.29-72.53-44.04-13.7-8.37-13.88-17.78-.44-25.99,24.71-15.09,49.5-30.06,74.3-45.01,9.24-5.57,16.02-4.83,20.31,1.91,4.27,6.73,1.92,13.43-7.13,19.02-19.74,12.18-39.58,24.19-60.57,37,20.8,12.63,40.1,24.3,59.34,36.05,9.99,6.1,12.7,12.4,8.61,19.48ZM456.06,355.47c-20.06,52.19-40.19,104.36-60.19,156.57-2.94,7.67-7.08,13.35-16.31,11.41-8.08-1.7-11.11-9.75-7.36-19.57,12.26-32.09,24.67-64.12,37.04-96.17,8.25-21.37,16.58-42.71,24.77-64.1,2.72-7.11,8.05-10.75,14.96-8.27,4.31,1.54,7.44,6.38,10.56,9.24-1.63,5.15-2.4,8.08-3.48,10.89ZM574.94,439.74c-26.86,16.75-54,33.04-81.17,49.27-6.88,4.11-13.32,2.45-17.24-4.59-4.02-7.21-1.12-13.12,5.45-17.16,20.35-12.51,40.81-24.85,62.57-38.06-19.24-11.71-37.05-22.54-54.85-33.38-2.88-1.75-5.81-3.42-8.58-5.32-6.14-4.21-8.34-10-4.59-16.59,3.97-6.95,10.43-8.62,17.32-4.5,27.17,16.23,54.32,32.51,81.18,49.25,8.31,5.18,8.27,15.86-.08,21.07ZM653.19,272.84c0,.65-.25,1.3-.55,2.84H175.52c0-18.3-.72-36.47.25-54.56.65-12.04,9.69-18.07,23.76-18.08,69.58-.04,139.16-.02,208.74-.02,72.96,0,145.92,0,218.88,0,19.34,0,26.1,6.81,26.12,26.23.01,14.52-.04,29.05-.08,43.57Z" style="stroke-width: 0px;"/></svg>