<svg aria-hidden="true" focusable="false" viewBox="0 0 170 143" xmlns="http://www.w3.org/2000/svg"><g> <g> <path d="M57.5,13.5" style="fill:none;"/> </g> <g> <g> <g> <path d="M17.7,72.5c0.7-2.4,1.2-4.8,2.3-7c4-8.5,13.2-13.4,22.7-12.1c9.1,1.2,16.8,8.5,18.6,17.6     c2.3,11.8-5.6,23.4-17.4,25.7C31.7,99.1,20.1,91,18,78.8c-0.1-0.3-0.2-0.7-0.3-1C17.7,76,17.7,74.3,17.7,72.5z M24.6,84.5     c3.7,5.4,8.6,8.4,15.2,8.3c6.4-0.1,11.3-3,14.9-8.3c-2.1-2.8-4.7-4.6-7.9-5.8c-0.3-0.1-0.9,0-1.2,0.1c-4,1.9-7.9,1.8-11.9,0     c-0.3-0.2-0.8-0.2-1.1-0.1C29.4,79.8,26.7,81.6,24.6,84.5z M39.6,75.8c5.1,0,9.1-4.1,9.1-9.2c0-5-4-9.1-9-9.1     c-5.1,0-9.2,4-9.2,9.1C30.5,71.7,34.5,75.8,39.6,75.8z M26.5,63.5c-4.5,4.9-5.4,12.2-3.8,16.2c2.1-1.5,4.2-3,6.4-4.5     C26.6,71.8,25.7,68,26.5,63.5z M50.2,75.1c2.2,1.6,4.3,3.1,6.4,4.6c1.9-4.8-0.1-12.9-3.7-15.8C53.6,68.1,52.7,71.8,50.2,75.1z" style="fill:currentColor;"/> <path d="M63,19.9c0.7-2.4,1.2-4.8,2.3-7C69.4,4.3,78.6-0.5,88,0.7c9.1,1.2,16.8,8.5,18.6,17.6     c2.3,11.8-5.6,23.4-17.4,25.7C77,46.4,65.4,38.4,63.3,26.1c-0.1-0.3-0.2-0.7-0.3-1C63,23.4,63,21.6,63,19.9z M70,31.8     c3.7,5.4,8.6,8.4,15.2,8.3c6.4-0.1,11.3-3,14.9-8.3C98,29,95.3,27.2,92.2,26c-0.3-0.1-0.9,0-1.2,0.1c-4,1.9-7.9,1.8-11.9,0     c-0.3-0.2-0.8-0.2-1.1-0.1C74.7,27.2,72,29,70,31.8z M85,23.1c5.1,0,9.1-4.1,9.1-9.2c0-5-4-9.1-9-9.1c-5.1,0-9.2,4-9.2,9.1     C75.8,19,79.9,23.1,85,23.1z M71.8,10.8C67.3,15.7,66.4,23,68.1,27c2.1-1.5,4.2-3,6.4-4.5C71.9,19.1,71,15.3,71.8,10.8z      M95.5,22.4c2.2,1.6,4.3,3.1,6.4,4.6c1.9-4.8-0.1-12.9-3.7-15.8C99,15.4,98,19.1,95.5,22.4z" style="fill:currentColor;"/> <path d="M63,114.8c0-6.7,0-13.4,0-20.1c0-3.7,1.9-6.5,5.2-7.3c0.8-0.2,1.6-0.2,2.5-0.2c9.6,0,19.1,0.1,28.7,0     c4.7-0.1,7.7,3,7.7,7.8c-0.1,13.3,0,26.6,0,40c0,3.9-1.9,6.6-5.4,7.4c-0.7,0.2-1.4,0.2-2.1,0.2c-9.7,0-19.5,0-29.2,0     c-4.6,0-7.4-2.8-7.4-7.5C63,128.3,63,121.5,63,114.8z M67.4,125.5c0,3.2,0,6.2,0,9.2c0,2.8,0.8,3.6,3.6,3.6c9.4,0,18.7,0,28.1,0     c0.6,0,1.2-0.1,1.8-0.2c1-0.2,1.7-0.9,1.7-1.9c0.1-3.5,0-7,0-10.6c-1.4,0-2.7,0-4,0c-1.7-0.1-2.6-0.8-2.5-2.2     c0-1.3,0.9-2.1,2.6-2.1c1.3,0,2.6,0,4,0c0-0.6,0-1,0-1.4c0-8.3,0-16.6,0-25c0-2.5-0.9-3.3-3.3-3.3c-9.5,0-19.1,0-28.6,0     c-2.5,0-3.3,0.9-3.3,3.3c0,8.4,0,16.7,0,25.1c0,0.4,0,0.8,0.1,1.3c3.3,0,6.4,0,9.5,0c3.8,0,7.6,0,11.4,0c1.5,0,2.4,0.8,2.4,2     c0.1,1.3-0.8,2.1-2.3,2.3c-0.4,0-0.8,0-1.2,0c-6.1,0-12.2,0-18.3,0C68.5,125.5,68,125.5,67.4,125.5z" style="fill:currentColor;"/> <path d="M108.4,75.2c0-12.1,9.7-21.9,21.9-22c12-0.1,22,9.9,22,21.9c0,11.8-9.3,22.1-22,22.1     C117.7,97.1,108.4,86.9,108.4,75.2z M145.3,84.4c-2-2.8-4.8-4.6-8-5.8c-0.3-0.1-0.8,0.1-1.1,0.2c-3.9,1.8-7.8,1.8-11.8,0     c-0.4-0.2-0.9-0.3-1.2-0.1c-3.2,1.2-5.9,3-7.9,5.8C122.6,95.9,138.8,95.3,145.3,84.4z M130.4,75.8c5.1,0,9.1-4.1,9.1-9.2     c0-5.1-4.2-9.1-9.2-9.1c-5,0-9,4.1-9,9.2C121.2,71.8,125.3,75.8,130.4,75.8z M119.9,75.2c-2.6-3.4-3.5-7.2-2.8-11.5     c-4.1,3.8-5.5,12-3.6,16c1-0.8,1.9-1.7,2.9-2.4C117.5,76.6,118.7,76,119.9,75.2z M147.3,79.6c1.7-4.6,0.3-12.2-3.8-16     c0.8,4.3-0.1,8.2-2.6,11.4C143.1,76.7,145.2,78.2,147.3,79.6z" style="fill:currentColor;"/> <path d="M85.1,134.6c-1.5,0-2.9-1.2-2.9-2.7c0-1.5,1.3-2.8,2.8-2.9c1.6,0,2.9,1.2,2.9,2.7     C87.9,133.3,86.6,134.6,85.1,134.6z" style="fill:currentColor;"/> </g> </g> <g> <path d="M59.7,122.6c-0.4,0-0.8-0.1-1.2-0.3c-1.8-1-3.6-2.1-5.2-3.2c-1.1-0.8-1.4-2.3-0.6-3.4    c0.8-1.1,2.3-1.4,3.4-0.6c1.5,1.1,3.1,2.1,4.8,2.9c1.2,0.6,1.6,2.1,1,3.3C61.4,122.2,60.6,122.6,59.7,122.6z" style="fill:currentColor;"/> <path d="M42.9,108.3c-0.7,0-1.5-0.3-1.9-1c-1.2-1.6-2.4-3.3-3.5-5.1c-0.7-1.2-0.3-2.7,0.8-3.4    c1.2-0.7,2.7-0.3,3.4,0.8c1,1.6,2,3.2,3.2,4.6c0.8,1.1,0.6,2.6-0.4,3.4C44,108.1,43.4,108.3,42.9,108.3z" style="fill:currentColor;"/> </g> <g> <path d="M127.5,107.8c-0.5,0-1-0.2-1.5-0.5c-1.1-0.8-1.3-2.4-0.5-3.4c1.1-1.5,2.2-3.1,3.1-4.7    c0.7-1.2,2.2-1.6,3.4-0.9c1.2,0.7,1.6,2.2,0.9,3.4c-1,1.8-2.2,3.5-3.4,5.1C128.9,107.5,128.2,107.8,127.5,107.8z" style="fill:currentColor;"/> <path d="M110.7,122.4c-0.9,0-1.7-0.5-2.1-1.3c-0.7-1.2-0.2-2.7,1-3.3c1.6-0.9,3.2-1.9,4.7-3c1.1-0.8,2.6-0.5,3.4,0.6    c0.8,1.1,0.5,2.6-0.6,3.4c-1.7,1.2-3.4,2.3-5.2,3.3C111.5,122.3,111.1,122.4,110.7,122.4z" style="fill:currentColor;"/> </g> <g> <path d="M115.3,32.3c-0.5,0-1-0.1-1.4-0.4c-1.5-1.1-3.1-2.1-4.8-2.9c-1.2-0.6-1.6-2.1-1-3.3c0.6-1.2,2.1-1.6,3.3-1    c1.8,1,3.6,2.1,5.2,3.2c1.1,0.8,1.4,2.3,0.6,3.4C116.8,31.9,116,32.3,115.3,32.3z" style="fill:currentColor;"/> <path d="M124.8,40.8c-0.7,0-1.4-0.3-1.8-0.8c-1.3-1.5-2.8-3-4.3-4.3c-1-0.9-1.1-2.4-0.2-3.5c0.9-1,2.4-1.1,3.5-0.2    c1.7,1.5,3.3,3.1,4.7,4.8c0.9,1,0.8,2.6-0.2,3.5C126,40.6,125.4,40.8,124.8,40.8z" style="fill:currentColor;"/> <path d="M131.8,50.9c-0.9,0-1.7-0.5-2.2-1.3c-0.9-1.6-1.9-3.3-2.9-4.8c-0.8-1.1-0.5-2.6,0.6-3.4    c1.1-0.8,2.6-0.5,3.4,0.6c1.2,1.7,2.2,3.5,3.2,5.3c0.6,1.2,0.2,2.7-1,3.3C132.6,50.8,132.2,50.9,131.8,50.9z" style="fill:currentColor;"/> </g> <g> <path d="M37.7,51.7c-0.4,0-0.8-0.1-1.1-0.3c-1.2-0.6-1.7-2.1-1.1-3.3c0.9-1.8,2-3.6,3.1-5.3c0.7-1.1,2.3-1.4,3.4-0.7    c1.1,0.7,1.4,2.3,0.7,3.4c-1,1.5-2,3.2-2.8,4.8C39.5,51.2,38.6,51.7,37.7,51.7z" style="fill:currentColor;"/> <path d="M44.6,41.5c-0.6,0-1.1-0.2-1.6-0.6c-1-0.9-1.2-2.4-0.3-3.5c1.5-1.7,3-3.3,4.7-4.9c1-0.9,2.5-0.9,3.5,0.1    c0.9,1,0.9,2.5-0.1,3.5c-1.5,1.4-2.9,2.9-4.3,4.4C46,41.2,45.3,41.5,44.6,41.5z" style="fill:currentColor;"/> <path d="M54.1,32.8c-0.8,0-1.5-0.4-2-1c-0.8-1.1-0.5-2.6,0.6-3.4c1.7-1.2,3.4-2.3,5.2-3.3c1.2-0.7,2.7-0.2,3.3,0.9    c0.7,1.2,0.2,2.7-0.9,3.3c-1.6,0.9-3.2,1.9-4.7,3C55.1,32.6,54.6,32.8,54.1,32.8z" style="fill:currentColor;"/> </g> </g></g></svg>